<svg xmlns="http://www.w3.org/2000/svg" xmlns:xlink="http://www.w3.org/1999/xlink" width="500" zoomAndPan="magnify" viewBox="0 0 375 374.999991" height="500" preserveAspectRatio="xMidYMid meet" version="1.0"><defs><g/><clipPath id="3d4e876357"><path d="M 103.171875 82.421875 L 271.765625 82.421875 L 271.765625 224.167969 L 103.171875 224.167969 Z M 103.171875 82.421875 " clip-rule="nonzero"/></clipPath></defs><path fill="#d4af37" d="M 165.324219 133.925781 L 163.480469 131.65625 L 165.707031 131.65625 L 167.296875 133.925781 Z M 168.734375 134.675781 C 168.824219 134.507812 168.8125 134.304688 168.703125 134.144531 L 166.394531 130.851562 C 166.300781 130.714844 166.140625 130.632812 165.972656 130.632812 L 162.648438 130.632812 C 162.605469 130.632812 162.566406 130.636719 162.523438 130.648438 C 162.375 130.609375 162.207031 130.640625 162.078125 130.746094 C 161.855469 130.925781 161.824219 131.25 162 131.46875 L 164.679688 134.761719 C 164.78125 134.882812 164.925781 134.953125 165.082031 134.953125 L 168.28125 134.953125 C 168.472656 134.953125 168.648438 134.847656 168.734375 134.675781 " fill-opacity="1" fill-rule="nonzero"/><g clip-path="url(#3d4e876357)"><path fill="#d4af37" d="M 269.4375 107.09375 L 268.617188 107.472656 C 268.402344 107.574219 268.28125 107.808594 268.332031 108.039062 L 268.609375 109.441406 L 264.628906 120.722656 L 259.074219 131.777344 L 257.246094 132.488281 C 257.0625 132.558594 256.933594 132.734375 256.921875 132.933594 C 256.910156 133.132812 257.011719 133.320312 257.1875 133.414062 L 258.023438 133.867188 L 253.628906 142.609375 L 226.941406 161.828125 L 213.839844 141.699219 L 215.890625 138.144531 C 215.914062 138.105469 215.929688 138.066406 215.941406 138.027344 L 219.785156 124.519531 C 219.785156 124.511719 219.785156 124.507812 219.785156 124.503906 C 219.792969 124.472656 219.800781 124.445312 219.800781 124.417969 C 219.804688 124.398438 219.800781 124.382812 219.800781 124.363281 C 219.800781 124.351562 219.800781 124.339844 219.796875 124.328125 C 219.792969 124.273438 219.78125 124.226562 219.761719 124.175781 C 219.761719 124.175781 219.761719 124.171875 219.757812 124.171875 L 214.089844 111.472656 L 212.355469 104.546875 L 239.230469 91.128906 L 267.183594 92.636719 L 270.707031 103.496094 Z M 236.898438 163.59375 L 227.625 162.597656 L 251.300781 145.550781 Z M 201.128906 169.488281 L 188.625 166.671875 L 206.8125 152.21875 L 208.554688 163.164062 Z M 212.78125 183.925781 L 210.269531 176.628906 L 209.894531 167.277344 L 212.78125 175.734375 Z M 210.605469 180.753906 L 212.738281 186.96875 L 210.109375 192.171875 L 211.035156 186.203125 C 211.042969 186.164062 211.042969 186.125 211.039062 186.082031 Z M 208.75 164.347656 L 209.183594 175.101562 L 204.082031 168.324219 Z M 196.972656 189.839844 L 187.984375 175.351562 L 187.984375 167.578125 L 200.667969 170.4375 Z M 195.707031 217.976562 L 194.4375 206.464844 L 194.4375 194.070312 C 194.4375 193.871094 194.324219 193.691406 194.144531 193.605469 L 187.984375 190.675781 L 187.984375 177.296875 L 196.714844 191.375 L 196.714844 209.144531 Z M 178.21875 191.375 L 186.957031 177.292969 L 186.957031 190.675781 L 180.789062 193.605469 C 180.613281 193.691406 180.5 193.871094 180.5 194.070312 L 180.5 206.464844 L 179.230469 217.976562 L 178.21875 209.144531 Z M 174.269531 170.4375 L 186.957031 167.578125 L 186.957031 175.347656 L 177.964844 189.839844 Z M 165.757812 175.097656 L 166.191406 164.347656 L 170.855469 168.324219 Z M 162.199219 186.96875 L 164.332031 180.761719 L 163.898438 186.082031 C 163.894531 186.125 163.894531 186.164062 163.902344 186.203125 L 164.824219 192.171875 Z M 165.042969 167.265625 L 164.667969 176.628906 L 162.15625 183.933594 L 162.15625 175.734375 Z M 168.125 152.21875 L 186.308594 166.671875 L 173.808594 169.488281 L 166.382812 163.164062 Z M 147.996094 161.828125 L 121.308594 142.609375 L 110.507812 121.121094 L 112.191406 120.125 C 112.386719 120.007812 112.484375 119.777344 112.425781 119.554688 C 112.367188 119.332031 112.167969 119.175781 111.9375 119.171875 L 109.441406 119.117188 L 104.226562 103.5 L 107.753906 92.636719 L 135.707031 91.128906 L 162.582031 104.546875 L 160.847656 111.472656 L 155.175781 124.171875 C 155.175781 124.171875 155.175781 124.175781 155.175781 124.175781 C 155.15625 124.226562 155.144531 124.273438 155.136719 124.328125 C 155.136719 124.339844 155.136719 124.351562 155.136719 124.363281 C 155.136719 124.382812 155.132812 124.398438 155.132812 124.417969 C 155.136719 124.445312 155.144531 124.476562 155.152344 124.503906 C 155.152344 124.507812 155.152344 124.515625 155.152344 124.519531 L 158.996094 138.027344 C 159.007812 138.066406 159.023438 138.105469 159.042969 138.144531 L 161.097656 141.699219 Z M 123.636719 145.550781 L 147.308594 162.597656 L 138.039062 163.59375 Z M 134.746094 83.472656 L 153.726562 89.4375 L 135.796875 90.097656 C 135.796875 90.097656 135.792969 90.097656 135.792969 90.097656 C 135.789062 90.097656 135.789062 90.097656 135.789062 90.097656 L 111.109375 91.429688 Z M 174.574219 92.316406 L 163.078125 103.648438 L 137.84375 91.046875 L 156.730469 90.355469 L 169.992188 90.355469 Z M 207.097656 112.765625 L 200.65625 94.046875 L 211.292969 104.535156 L 213.105469 111.761719 C 213.109375 111.792969 213.121094 111.820312 213.132812 111.847656 L 217.839844 122.390625 Z M 197.273438 144.746094 C 197.257812 144.734375 197.242188 144.726562 197.222656 144.71875 L 187.984375 140.253906 L 187.984375 134.464844 L 198.492188 139.25 L 205.261719 149.789062 Z M 187.984375 141.390625 L 196.75 145.628906 L 206.058594 151.507812 L 187.984375 165.871094 Z M 178.1875 145.628906 L 186.957031 141.390625 L 186.957031 165.875 L 168.875 151.507812 Z M 176.441406 139.25 L 186.957031 134.464844 L 186.957031 140.25 L 177.714844 144.71875 C 177.695312 144.726562 177.679688 144.734375 177.664062 144.746094 L 169.671875 149.789062 Z M 186.957031 107.136719 L 176.367188 92.496094 L 186.957031 90.460938 Z M 187.984375 107.132812 L 187.984375 90.460938 L 198.570312 92.496094 Z M 188.339844 108.394531 L 199.296875 93.246094 L 205.871094 112.355469 Z M 211.027344 126.589844 L 207.632812 114.625 L 218.453125 124.320312 L 213.683594 127.496094 Z M 206.640625 114.882812 L 210.027344 126.839844 L 200.011719 136.765625 Z M 187.984375 109.363281 L 206.003906 113.4375 L 198.523438 138.136719 L 187.984375 133.335938 Z M 176.414062 138.136719 L 168.933594 113.4375 L 186.957031 109.363281 L 186.957031 133.335938 Z M 168.296875 114.882812 L 174.925781 136.765625 L 164.910156 126.839844 Z M 163.910156 126.589844 L 161.253906 127.496094 L 156.480469 124.320312 L 167.304688 114.625 Z M 186.597656 108.394531 L 169.066406 112.355469 L 175.640625 93.246094 Z M 163.640625 104.535156 L 174.28125 94.046875 L 167.839844 112.765625 L 157.097656 122.390625 L 161.804688 111.847656 C 161.816406 111.820312 161.824219 111.792969 161.832031 111.761719 Z M 159.964844 137.6875 L 156.523438 125.578125 L 160.894531 128.488281 C 161.03125 128.578125 161.195312 128.601562 161.347656 128.546875 L 164.195312 127.578125 L 175.515625 138.796875 L 167.660156 151.023438 Z M 193.410156 197.898438 L 187.46875 200.121094 L 181.527344 197.898438 L 181.527344 194.394531 L 187.46875 191.566406 L 193.410156 194.394531 Z M 193.65625 208.21875 L 195.132812 221.195312 L 188.0625 223.035156 Z M 181.28125 208.21875 L 186.875 223.035156 L 179.800781 221.195312 Z M 186.957031 201.027344 L 186.957031 220.867188 L 181.527344 206.382812 L 181.527344 198.992188 Z M 193.410156 206.382812 L 187.984375 220.863281 L 187.984375 201.023438 L 193.410156 198.992188 Z M 207.273438 151.023438 L 199.421875 138.796875 L 210.738281 127.578125 L 213.589844 128.546875 C 213.742188 128.601562 213.90625 128.578125 214.039062 128.488281 L 218.414062 125.578125 L 214.96875 137.6875 Z M 204.945312 90.355469 L 218.203125 90.355469 L 237.09375 91.046875 L 211.855469 103.648438 L 200.363281 92.316406 Z M 240.191406 83.472656 L 263.828125 91.429688 L 239.148438 90.097656 C 239.148438 90.097656 239.144531 90.097656 239.144531 90.097656 C 239.144531 90.097656 239.140625 90.097656 239.140625 90.097656 L 221.210938 89.4375 Z M 271.738281 103.34375 L 268.050781 91.984375 C 268.050781 91.984375 268.046875 91.980469 268.046875 91.980469 C 268.035156 91.945312 268.019531 91.910156 268 91.878906 C 267.996094 91.875 267.996094 91.871094 267.992188 91.867188 C 267.972656 91.839844 267.957031 91.816406 267.933594 91.792969 C 267.925781 91.78125 267.914062 91.773438 267.90625 91.765625 C 267.886719 91.75 267.867188 91.734375 267.847656 91.71875 C 267.835938 91.714844 267.828125 91.707031 267.816406 91.699219 C 267.792969 91.6875 267.769531 91.675781 267.746094 91.667969 C 267.738281 91.664062 267.730469 91.660156 267.726562 91.65625 L 240.359375 82.449219 C 240.257812 82.414062 240.144531 82.410156 240.042969 82.445312 L 218.136719 89.328125 L 204.839844 89.328125 C 204.769531 89.328125 204.703125 89.34375 204.636719 89.371094 L 199.402344 91.609375 L 187.582031 89.339844 C 187.546875 89.332031 187.507812 89.328125 187.46875 89.328125 C 187.433594 89.328125 187.394531 89.332031 187.359375 89.339844 L 175.535156 91.609375 L 170.300781 89.371094 C 170.234375 89.34375 170.167969 89.328125 170.097656 89.328125 L 156.800781 89.328125 L 134.894531 82.445312 C 134.789062 82.410156 134.679688 82.414062 134.574219 82.449219 L 107.210938 91.65625 C 107.203125 91.660156 107.199219 91.664062 107.191406 91.667969 C 107.167969 91.675781 107.144531 91.6875 107.121094 91.699219 C 107.109375 91.707031 107.101562 91.714844 107.089844 91.71875 C 107.070312 91.734375 107.046875 91.75 107.03125 91.765625 C 107.023438 91.773438 107.011719 91.78125 107.003906 91.792969 C 106.980469 91.8125 106.960938 91.839844 106.945312 91.867188 C 106.941406 91.871094 106.9375 91.875 106.9375 91.878906 C 106.917969 91.910156 106.902344 91.945312 106.890625 91.980469 C 106.890625 91.980469 106.886719 91.984375 106.886719 91.984375 L 103.199219 103.34375 C 103.164062 103.449219 103.164062 103.5625 103.199219 103.664062 L 108.578125 119.78125 C 108.648438 119.988281 108.839844 120.128906 109.054688 120.132812 L 110.125 120.15625 L 109.574219 120.484375 C 109.34375 120.621094 109.253906 120.914062 109.375 121.15625 L 120.445312 143.183594 C 120.449219 143.1875 120.453125 143.195312 120.453125 143.199219 C 120.464844 143.214844 120.476562 143.234375 120.488281 143.25 C 120.492188 143.257812 120.496094 143.265625 120.503906 143.273438 L 137.414062 164.457031 C 137.511719 164.578125 137.660156 164.648438 137.8125 164.648438 C 137.832031 164.648438 137.851562 164.648438 137.871094 164.648438 L 147.863281 163.570312 C 148.015625 163.554688 148.152344 163.46875 148.238281 163.339844 L 161.671875 142.699219 L 167.101562 152.109375 L 165.332031 163.246094 L 161.15625 175.484375 C 161.136719 175.535156 161.128906 175.59375 161.128906 175.648438 L 161.128906 187.007812 C 161.128906 187.011719 161.128906 187.019531 161.128906 187.023438 C 161.132812 187.050781 161.132812 187.078125 161.140625 187.105469 C 161.140625 187.113281 161.140625 187.125 161.144531 187.132812 C 161.152344 187.167969 161.164062 187.203125 161.183594 187.234375 C 161.183594 187.238281 161.183594 187.238281 161.183594 187.238281 L 165.371094 195.527344 C 165.460938 195.703125 165.640625 195.808594 165.832031 195.808594 C 165.882812 195.808594 165.9375 195.800781 165.988281 195.785156 C 166.230469 195.707031 166.378906 195.46875 166.339844 195.21875 L 164.925781 186.105469 L 165.679688 176.914062 L 171.640625 168.988281 L 173.199219 170.320312 L 177.191406 191.277344 L 177.191406 209.1875 C 177.191406 209.21875 177.195312 209.246094 177.199219 209.273438 L 178.8125 221.71875 C 178.851562 221.933594 179.019531 222.105469 179.234375 222.140625 L 187.367188 224.15625 L 187.382812 224.160156 C 187.40625 224.164062 187.429688 224.164062 187.453125 224.164062 C 187.457031 224.164062 187.464844 224.167969 187.46875 224.167969 C 187.480469 224.167969 187.492188 224.164062 187.5 224.164062 C 187.519531 224.164062 187.535156 224.164062 187.554688 224.160156 L 187.566406 224.160156 C 187.570312 224.15625 187.574219 224.15625 187.578125 224.15625 L 195.703125 222.140625 C 195.917969 222.105469 196.085938 221.933594 196.121094 221.71875 L 197.738281 209.273438 C 197.742188 209.246094 197.742188 209.21875 197.742188 209.1875 L 197.742188 191.277344 L 201.734375 170.320312 L 203.296875 168.988281 L 209.257812 176.914062 L 210.011719 186.105469 L 208.597656 195.21875 C 208.558594 195.46875 208.707031 195.707031 208.949219 195.785156 C 209 195.800781 209.054688 195.808594 209.105469 195.808594 C 209.296875 195.808594 209.476562 195.703125 209.566406 195.527344 L 213.742188 187.257812 C 213.789062 187.175781 213.8125 187.085938 213.808594 186.988281 L 213.808594 175.648438 C 213.808594 175.59375 213.800781 175.535156 213.78125 175.484375 L 209.738281 163.632812 C 209.734375 163.621094 209.730469 163.609375 209.726562 163.601562 L 209.605469 163.246094 L 207.835938 152.109375 L 213.265625 142.699219 L 226.699219 163.339844 C 226.785156 163.46875 226.921875 163.554688 227.074219 163.570312 L 237.066406 164.648438 C 237.085938 164.648438 237.105469 164.648438 237.121094 164.648438 C 237.277344 164.648438 237.425781 164.578125 237.523438 164.457031 L 254.433594 143.273438 C 254.441406 143.265625 254.445312 143.253906 254.449219 143.246094 C 254.460938 143.230469 254.472656 143.214844 254.480469 143.199219 C 254.484375 143.195312 254.488281 143.1875 254.492188 143.183594 L 259.164062 133.886719 C 259.285156 133.636719 259.195312 133.335938 258.949219 133.203125 L 258.652344 133.042969 L 259.628906 132.660156 C 259.75 132.613281 259.847656 132.527344 259.902344 132.414062 L 265.558594 121.15625 C 265.570312 121.136719 265.578125 121.117188 265.585938 121.097656 L 269.628906 109.648438 C 269.65625 109.558594 269.664062 109.464844 269.644531 109.375 L 269.417969 108.234375 L 270.066406 107.933594 C 270.191406 107.875 270.289062 107.769531 270.335938 107.636719 L 271.734375 103.671875 C 271.773438 103.566406 271.773438 103.453125 271.738281 103.34375 " fill-opacity="1" fill-rule="nonzero"/></g><path fill="#d4af37" d="M 209.613281 133.925781 L 207.640625 133.925781 L 209.230469 131.65625 L 211.457031 131.65625 Z M 212.859375 130.746094 C 212.730469 130.640625 212.5625 130.609375 212.410156 130.648438 C 212.371094 130.636719 212.332031 130.632812 212.289062 130.632812 L 208.964844 130.632812 C 208.796875 130.632812 208.636719 130.714844 208.542969 130.851562 L 206.234375 134.144531 C 206.125 134.304688 206.109375 134.507812 206.199219 134.675781 C 206.289062 134.847656 206.464844 134.953125 206.65625 134.953125 L 209.855469 134.953125 C 210.011719 134.953125 210.15625 134.882812 210.253906 134.761719 L 212.933594 131.46875 C 213.113281 131.25 213.078125 130.925781 212.859375 130.746094 " fill-opacity="1" fill-rule="nonzero"/><g fill="#d4af37" fill-opacity="1"><g transform="translate(86.307608, 272.348567)"><g><path d="M 1.800781 -5.183594 C 1.800781 -1.800781 3.601562 0 6.984375 0 L 11.734375 0 C 15.085938 0 16.921875 -1.800781 16.921875 -5.183594 L 16.921875 -15.191406 C 16.921875 -15.589844 16.703125 -15.769531 16.34375 -15.769531 L 10.296875 -15.769531 C 9.898438 -15.769531 9.71875 -15.589844 9.71875 -15.191406 L 9.71875 -11.59375 C 9.71875 -11.230469 9.898438 -11.015625 10.296875 -11.015625 L 12.167969 -11.015625 L 12.167969 -6.191406 C 12.167969 -5.21875 11.664062 -4.753906 10.726562 -4.753906 L 8.136719 -4.753906 C 7.199219 -4.753906 6.695312 -5.21875 6.695312 -6.191406 L 6.695312 -22.609375 C 6.695312 -23.542969 7.164062 -24.046875 8.136719 -24.046875 L 10.726562 -24.046875 C 11.664062 -24.046875 12.167969 -23.542969 12.167969 -22.609375 L 12.167969 -19.871094 C 12.167969 -19.511719 12.347656 -19.296875 12.742188 -19.296875 L 16.34375 -19.296875 C 16.703125 -19.296875 16.921875 -19.511719 16.921875 -19.871094 L 16.921875 -23.617188 C 16.921875 -27 15.085938 -28.800781 11.734375 -28.800781 L 6.984375 -28.800781 C 3.601562 -28.800781 1.800781 -27 1.800781 -23.617188 Z M 1.800781 -5.183594 "/></g></g></g><g fill="#d4af37" fill-opacity="1"><g transform="translate(105.027645, 272.348567)"><g><path d="M 1.800781 -5.183594 C 1.800781 -1.800781 3.601562 0 6.984375 0 L 11.015625 0 C 14.398438 0 16.199219 -1.800781 16.199219 -5.183594 L 16.199219 -23.617188 C 16.199219 -27 14.398438 -28.800781 11.015625 -28.800781 L 6.984375 -28.800781 C 3.601562 -28.800781 1.800781 -27 1.800781 -23.617188 Z M 8.027344 -4.644531 C 7.09375 -4.644531 6.589844 -5.113281 6.589844 -6.085938 L 6.589844 -22.714844 C 6.589844 -23.652344 7.09375 -24.15625 8.027344 -24.15625 L 10.117188 -24.15625 C 11.050781 -24.15625 11.554688 -23.652344 11.554688 -22.714844 L 11.554688 -6.085938 C 11.554688 -5.113281 11.050781 -4.644531 10.117188 -4.644531 Z M 8.027344 -4.644531 "/></g></g></g><g fill="#d4af37" fill-opacity="1"><g transform="translate(123.027679, 272.348567)"><g><path d="M 6.695312 -4.753906 L 15.265625 -4.753906 C 15.660156 -4.753906 15.839844 -4.535156 15.839844 -4.175781 L 15.839844 -0.574219 C 15.839844 -0.179688 15.660156 0 15.265625 0 L 2.375 0 C 2.015625 0 1.800781 -0.179688 1.800781 -0.574219 L 1.800781 -28.222656 C 1.800781 -28.585938 2.015625 -28.800781 2.375 -28.800781 L 6.121094 -28.800781 C 6.515625 -28.800781 6.695312 -28.585938 6.695312 -28.222656 Z M 6.695312 -4.753906 "/></g></g></g><g fill="#d4af37" fill-opacity="1"><g transform="translate(140.667715, 272.348567)"><g><path d="M 1.800781 -0.574219 C 1.800781 -0.179688 1.980469 0 2.375 0 L 11.015625 0 C 14.398438 0 16.199219 -1.800781 16.199219 -5.183594 L 16.199219 -23.578125 C 16.199219 -26.964844 14.398438 -28.800781 11.015625 -28.800781 L 2.375 -28.800781 C 1.980469 -28.800781 1.800781 -28.585938 1.800781 -28.222656 Z M 6.695312 -4.753906 L 6.695312 -24.046875 L 10.007812 -24.046875 C 10.945312 -24.046875 11.449219 -23.542969 11.449219 -22.570312 L 11.449219 -6.191406 C 11.449219 -5.21875 10.945312 -4.753906 10.007812 -4.753906 Z M 6.695312 -4.753906 "/></g></g></g><g fill="#d4af37" fill-opacity="1"><g transform="translate(158.667748, 272.348567)"><g><path d="M 16.164062 -28.222656 C 16.164062 -28.585938 16.019531 -28.800781 15.589844 -28.800781 L 2.339844 -28.800781 C 2.015625 -28.800781 1.800781 -28.585938 1.800781 -28.222656 L 1.800781 -0.574219 C 1.800781 -0.214844 2.015625 0 2.339844 0 L 15.589844 0 C 16.019531 0 16.164062 -0.214844 16.164062 -0.574219 L 16.164062 -4.175781 C 16.164062 -4.570312 16.019531 -4.753906 15.589844 -4.753906 L 6.589844 -4.753906 L 6.589844 -12.023438 L 13.464844 -12.023438 C 13.824219 -12.023438 14.039062 -12.238281 14.039062 -12.636719 L 14.039062 -16.199219 C 14.039062 -16.597656 13.824219 -16.8125 13.464844 -16.8125 L 6.589844 -16.8125 L 6.589844 -24.011719 L 15.589844 -24.011719 C 16.019531 -24.011719 16.164062 -24.265625 16.164062 -24.625 Z M 16.164062 -28.222656 "/></g></g></g><g fill="#d4af37" fill-opacity="1"><g transform="translate(176.631779, 272.348567)"><g><path d="M 12.851562 -28.800781 C 12.457031 -28.800781 12.277344 -28.585938 12.277344 -28.222656 L 12.277344 -13.03125 L 12.058594 -13.03125 L 6.589844 -28.332031 C 6.480469 -28.65625 6.265625 -28.800781 5.941406 -28.800781 L 2.375 -28.800781 C 2.015625 -28.800781 1.800781 -28.585938 1.800781 -28.222656 L 1.800781 -0.574219 C 1.800781 -0.214844 2.015625 0 2.375 0 L 6.121094 0 C 6.515625 0 6.695312 -0.214844 6.695312 -0.574219 L 6.695312 -15.839844 L 6.875 -15.839844 L 12.382812 -0.46875 C 12.492188 -0.144531 12.707031 0 13.03125 0 L 16.597656 0 C 16.957031 0 17.171875 -0.214844 17.171875 -0.574219 L 17.171875 -28.222656 C 17.171875 -28.585938 16.957031 -28.800781 16.597656 -28.800781 Z M 12.851562 -28.800781 "/></g></g></g><g fill="#d4af37" fill-opacity="1"><g transform="translate(195.603816, 272.348567)"><g/></g></g><g fill="#d4af37" fill-opacity="1"><g transform="translate(204.603838, 272.348567)"><g><path d="M 2.375 -28.800781 C 1.980469 -28.800781 1.800781 -28.585938 1.800781 -28.222656 L 1.800781 -0.574219 C 1.800781 -0.214844 1.980469 0 2.375 0 L 6.121094 0 C 6.480469 0 6.695312 -0.214844 6.695312 -0.574219 L 6.695312 -28.222656 C 6.695312 -28.585938 6.480469 -28.800781 6.121094 -28.800781 Z M 2.375 -28.800781 "/></g></g></g><g fill="#d4af37" fill-opacity="1"><g transform="translate(213.099851, 272.348567)"><g><path d="M 14.363281 -28.800781 C 13.933594 -28.800781 13.679688 -28.585938 13.570312 -28.152344 L 9.757812 -8.855469 L 5.976562 -28.152344 C 5.867188 -28.585938 5.617188 -28.800781 5.183594 -28.800781 L 1.765625 -28.800781 C 1.222656 -28.800781 1.007812 -28.511719 1.117188 -28.007812 L 7.164062 -0.648438 C 7.273438 -0.214844 7.523438 0 7.957031 0 L 11.554688 0 C 11.988281 0 12.238281 -0.214844 12.347656 -0.648438 L 18.433594 -28.007812 C 18.539062 -28.511719 18.324219 -28.800781 17.785156 -28.800781 Z M 14.363281 -28.800781 "/></g></g></g><g fill="#d4af37" fill-opacity="1"><g transform="translate(232.647892, 272.348567)"><g><path d="M 1.800781 -5.183594 C 1.800781 -1.800781 3.601562 0 6.984375 0 L 11.015625 0 C 14.398438 0 16.199219 -1.800781 16.199219 -5.183594 L 16.199219 -23.617188 C 16.199219 -27 14.398438 -28.800781 11.015625 -28.800781 L 6.984375 -28.800781 C 3.601562 -28.800781 1.800781 -27 1.800781 -23.617188 Z M 8.027344 -4.644531 C 7.09375 -4.644531 6.589844 -5.113281 6.589844 -6.085938 L 6.589844 -22.714844 C 6.589844 -23.652344 7.09375 -24.15625 8.027344 -24.15625 L 10.117188 -24.15625 C 11.050781 -24.15625 11.554688 -23.652344 11.554688 -22.714844 L 11.554688 -6.085938 C 11.554688 -5.113281 11.050781 -4.644531 10.117188 -4.644531 Z M 8.027344 -4.644531 "/></g></g></g><g fill="#d4af37" fill-opacity="1"><g transform="translate(250.647925, 272.348567)"><g><path d="M 16.597656 -23.617188 C 16.597656 -27 14.796875 -28.800781 11.410156 -28.800781 L 2.375 -28.800781 C 2.015625 -28.800781 1.800781 -28.585938 1.800781 -28.222656 L 1.800781 -0.574219 C 1.800781 -0.214844 2.015625 0 2.375 0 L 6.121094 0 C 6.480469 0 6.695312 -0.214844 6.695312 -0.574219 L 6.695312 -9.648438 L 9.179688 -9.648438 L 11.59375 -0.503906 C 11.664062 -0.179688 11.84375 0 12.203125 0 L 15.949219 0 C 16.34375 0 16.558594 -0.214844 16.453125 -0.648438 L 13.96875 -10.078125 C 15.695312 -10.835938 16.597656 -12.421875 16.597656 -14.832031 Z M 6.695312 -14.398438 L 6.695312 -24.046875 L 10.261719 -24.046875 C 11.195312 -24.046875 11.699219 -23.542969 11.699219 -22.609375 L 11.699219 -15.839844 C 11.699219 -14.902344 11.195312 -14.398438 10.261719 -14.398438 Z M 6.695312 -14.398438 "/></g></g></g><g fill="#d4af37" fill-opacity="1"><g transform="translate(269.043958, 272.348567)"><g><path d="M 14.6875 -28.800781 C 14.257812 -28.800781 14.003906 -28.621094 13.859375 -28.222656 L 9.828125 -17.890625 L 5.796875 -28.222656 C 5.652344 -28.621094 5.398438 -28.800781 4.96875 -28.800781 L 1.367188 -28.800781 C 0.828125 -28.800781 0.574219 -28.476562 0.792969 -27.972656 L 7.378906 -11.953125 L 7.378906 -0.71875 C 7.378906 -0.253906 7.632812 0 8.101562 0 L 11.554688 0 C 12.023438 0 12.277344 -0.253906 12.277344 -0.71875 L 12.277344 -11.953125 L 18.863281 -27.972656 C 19.078125 -28.476562 18.828125 -28.800781 18.289062 -28.800781 Z M 14.6875 -28.800781 "/></g></g></g><g fill="#d4af37" fill-opacity="1"><g transform="translate(118.835732, 289.479855)"><g><path d="M 6.3125 -9.179688 C 6.3125 -10.496094 5.597656 -11.195312 4.296875 -11.195312 L 2.730469 -11.195312 C 1.414062 -11.195312 0.699219 -10.496094 0.699219 -9.179688 L 0.699219 -2.015625 C 0.699219 -0.699219 1.414062 0 2.730469 0 L 4.296875 0 C 5.597656 0 6.3125 -0.699219 6.3125 -2.015625 L 6.3125 -3.527344 C 6.3125 -3.667969 6.226562 -3.75 6.085938 -3.75 L 4.6875 -3.75 C 4.535156 -3.75 4.464844 -3.667969 4.464844 -3.527344 L 4.464844 -2.40625 C 4.464844 -2.027344 4.269531 -1.847656 3.90625 -1.847656 L 3.175781 -1.847656 C 2.8125 -1.847656 2.617188 -2.027344 2.617188 -2.40625 L 2.617188 -8.789062 C 2.617188 -9.152344 2.800781 -9.347656 3.175781 -9.347656 L 3.90625 -9.347656 C 4.269531 -9.347656 4.464844 -9.152344 4.464844 -8.789062 L 4.464844 -7.667969 C 4.464844 -7.53125 4.535156 -7.445312 4.6875 -7.445312 L 6.085938 -7.445312 C 6.226562 -7.445312 6.3125 -7.53125 6.3125 -7.667969 Z M 6.3125 -9.179688 "/></g></g></g><g fill="#d4af37" fill-opacity="1"><g transform="translate(127.245821, 289.479855)"><g><path d="M 0.699219 -2.015625 C 0.699219 -0.699219 1.398438 0 2.714844 0 L 4.28125 0 C 5.597656 0 6.296875 -0.699219 6.296875 -2.015625 L 6.296875 -9.179688 C 6.296875 -10.496094 5.597656 -11.195312 4.28125 -11.195312 L 2.714844 -11.195312 C 1.398438 -11.195312 0.699219 -10.496094 0.699219 -9.179688 Z M 3.121094 -1.804688 C 2.757812 -1.804688 2.5625 -1.988281 2.5625 -2.363281 L 2.5625 -8.832031 C 2.5625 -9.195312 2.757812 -9.390625 3.121094 -9.390625 L 3.933594 -9.390625 C 4.296875 -9.390625 4.492188 -9.195312 4.492188 -8.832031 L 4.492188 -2.363281 C 4.492188 -1.988281 4.296875 -1.804688 3.933594 -1.804688 Z M 3.121094 -1.804688 "/></g></g></g><g fill="#d4af37" fill-opacity="1"><g transform="translate(135.641914, 289.479855)"><g><path d="M 6.296875 -10.972656 C 6.296875 -11.113281 6.214844 -11.195312 6.074219 -11.195312 L 0.921875 -11.195312 C 0.769531 -11.195312 0.699219 -11.113281 0.699219 -10.972656 L 0.699219 -0.222656 C 0.699219 -0.0820312 0.769531 0 0.921875 0 L 2.378906 0 C 2.519531 0 2.601562 -0.0820312 2.601562 -0.222656 L 2.601562 -4.6875 L 5.234375 -4.6875 C 5.375 -4.6875 5.457031 -4.757812 5.457031 -4.914062 L 5.457031 -6.3125 C 5.457031 -6.453125 5.375 -6.535156 5.234375 -6.535156 L 2.601562 -6.535156 L 2.601562 -9.347656 L 6.074219 -9.347656 C 6.214844 -9.347656 6.296875 -9.433594 6.296875 -9.574219 Z M 6.296875 -10.972656 "/></g></g></g><g fill="#d4af37" fill-opacity="1"><g transform="translate(144.038006, 289.479855)"><g><path d="M 6.296875 -10.972656 C 6.296875 -11.113281 6.214844 -11.195312 6.074219 -11.195312 L 0.921875 -11.195312 C 0.769531 -11.195312 0.699219 -11.113281 0.699219 -10.972656 L 0.699219 -0.222656 C 0.699219 -0.0820312 0.769531 0 0.921875 0 L 2.378906 0 C 2.519531 0 2.601562 -0.0820312 2.601562 -0.222656 L 2.601562 -4.6875 L 5.234375 -4.6875 C 5.375 -4.6875 5.457031 -4.757812 5.457031 -4.914062 L 5.457031 -6.3125 C 5.457031 -6.453125 5.375 -6.535156 5.234375 -6.535156 L 2.601562 -6.535156 L 2.601562 -9.347656 L 6.074219 -9.347656 C 6.214844 -9.347656 6.296875 -9.433594 6.296875 -9.574219 Z M 6.296875 -10.972656 "/></g></g></g><g fill="#d4af37" fill-opacity="1"><g transform="translate(152.434101, 289.479855)"><g><path d="M 6.285156 -10.972656 C 6.285156 -11.113281 6.226562 -11.195312 6.058594 -11.195312 L 0.910156 -11.195312 C 0.785156 -11.195312 0.699219 -11.113281 0.699219 -10.972656 L 0.699219 -0.222656 C 0.699219 -0.0820312 0.785156 0 0.910156 0 L 6.058594 0 C 6.226562 0 6.285156 -0.0820312 6.285156 -0.222656 L 6.285156 -1.625 C 6.285156 -1.777344 6.226562 -1.847656 6.058594 -1.847656 L 2.5625 -1.847656 L 2.5625 -4.675781 L 5.234375 -4.675781 C 5.375 -4.675781 5.457031 -4.757812 5.457031 -4.914062 L 5.457031 -6.296875 C 5.457031 -6.453125 5.375 -6.535156 5.234375 -6.535156 L 2.5625 -6.535156 L 2.5625 -9.335938 L 6.058594 -9.335938 C 6.226562 -9.335938 6.285156 -9.433594 6.285156 -9.574219 Z M 6.285156 -10.972656 "/></g></g></g><g fill="#d4af37" fill-opacity="1"><g transform="translate(160.8162, 289.479855)"><g><path d="M 6.285156 -10.972656 C 6.285156 -11.113281 6.226562 -11.195312 6.058594 -11.195312 L 0.910156 -11.195312 C 0.785156 -11.195312 0.699219 -11.113281 0.699219 -10.972656 L 0.699219 -0.222656 C 0.699219 -0.0820312 0.785156 0 0.910156 0 L 6.058594 0 C 6.226562 0 6.285156 -0.0820312 6.285156 -0.222656 L 6.285156 -1.625 C 6.285156 -1.777344 6.226562 -1.847656 6.058594 -1.847656 L 2.5625 -1.847656 L 2.5625 -4.675781 L 5.234375 -4.675781 C 5.375 -4.675781 5.457031 -4.757812 5.457031 -4.914062 L 5.457031 -6.296875 C 5.457031 -6.453125 5.375 -6.535156 5.234375 -6.535156 L 2.5625 -6.535156 L 2.5625 -9.335938 L 6.058594 -9.335938 C 6.226562 -9.335938 6.285156 -9.433594 6.285156 -9.574219 Z M 6.285156 -10.972656 "/></g></g></g><g fill="#d4af37" fill-opacity="1"><g transform="translate(169.198298, 289.479855)"><g/></g></g><g fill="#d4af37" fill-opacity="1"><g transform="translate(174.096346, 289.479855)"><g><path d="M 7.445312 0 C 7.613281 0 7.667969 -0.0820312 7.640625 -0.238281 L 5.316406 -11 C 5.289062 -11.140625 5.207031 -11.195312 5.082031 -11.195312 L 3.136719 -11.195312 C 3.007812 -11.195312 2.925781 -11.140625 2.898438 -11 L 0.574219 -0.238281 C 0.53125 -0.0820312 0.601562 0 0.753906 0 L 2.253906 0 C 2.378906 0 2.449219 -0.0703125 2.476562 -0.195312 L 2.855469 -2.238281 L 5.347656 -2.238281 L 5.738281 -0.195312 C 5.765625 -0.0703125 5.835938 0 5.960938 0 Z M 4.996094 -3.863281 L 3.203125 -3.863281 L 4.101562 -8.746094 Z M 4.996094 -3.863281 "/></g></g></g><g fill="#d4af37" fill-opacity="1"><g transform="translate(183.695776, 289.479855)"><g><path d="M 4.996094 -11.195312 C 4.84375 -11.195312 4.773438 -11.113281 4.773438 -10.972656 L 4.773438 -5.066406 L 4.6875 -5.066406 L 2.5625 -11.015625 C 2.519531 -11.140625 2.433594 -11.195312 2.308594 -11.195312 L 0.921875 -11.195312 C 0.785156 -11.195312 0.699219 -11.113281 0.699219 -10.972656 L 0.699219 -0.222656 C 0.699219 -0.0820312 0.785156 0 0.921875 0 L 2.378906 0 C 2.53125 0 2.601562 -0.0820312 2.601562 -0.222656 L 2.601562 -6.15625 L 2.671875 -6.15625 L 4.8125 -0.183594 C 4.855469 -0.0546875 4.941406 0 5.066406 0 L 6.453125 0 C 6.589844 0 6.675781 -0.0820312 6.675781 -0.222656 L 6.675781 -10.972656 C 6.675781 -11.113281 6.589844 -11.195312 6.453125 -11.195312 Z M 4.996094 -11.195312 "/></g></g></g><g fill="#d4af37" fill-opacity="1"><g transform="translate(192.469663, 289.479855)"><g><path d="M 0.699219 -0.222656 C 0.699219 -0.0703125 0.769531 0 0.921875 0 L 4.28125 0 C 5.597656 0 6.296875 -0.699219 6.296875 -2.015625 L 6.296875 -9.167969 C 6.296875 -10.480469 5.597656 -11.195312 4.28125 -11.195312 L 0.921875 -11.195312 C 0.769531 -11.195312 0.699219 -11.113281 0.699219 -10.972656 Z M 2.601562 -1.847656 L 2.601562 -9.347656 L 3.890625 -9.347656 C 4.253906 -9.347656 4.449219 -9.152344 4.449219 -8.773438 L 4.449219 -2.40625 C 4.449219 -2.027344 4.253906 -1.847656 3.890625 -1.847656 Z M 2.601562 -1.847656 "/></g></g></g><g fill="#d4af37" fill-opacity="1"><g transform="translate(200.865757, 289.479855)"><g/></g></g><g fill="#d4af37" fill-opacity="1"><g transform="translate(205.763806, 289.479855)"><g><path d="M 6.285156 -10.972656 C 6.285156 -11.113281 6.226562 -11.195312 6.058594 -11.195312 L 0.910156 -11.195312 C 0.785156 -11.195312 0.699219 -11.113281 0.699219 -10.972656 L 0.699219 -0.222656 C 0.699219 -0.0820312 0.785156 0 0.910156 0 L 6.058594 0 C 6.226562 0 6.285156 -0.0820312 6.285156 -0.222656 L 6.285156 -1.625 C 6.285156 -1.777344 6.226562 -1.847656 6.058594 -1.847656 L 2.5625 -1.847656 L 2.5625 -4.675781 L 5.234375 -4.675781 C 5.375 -4.675781 5.457031 -4.757812 5.457031 -4.914062 L 5.457031 -6.296875 C 5.457031 -6.453125 5.375 -6.535156 5.234375 -6.535156 L 2.5625 -6.535156 L 2.5625 -9.335938 L 6.058594 -9.335938 C 6.226562 -9.335938 6.285156 -9.433594 6.285156 -9.574219 Z M 6.285156 -10.972656 "/></g></g></g><g fill="#d4af37" fill-opacity="1"><g transform="translate(214.145904, 289.479855)"><g><path d="M 7.445312 0 C 7.613281 0 7.667969 -0.0820312 7.640625 -0.238281 L 5.316406 -11 C 5.289062 -11.140625 5.207031 -11.195312 5.082031 -11.195312 L 3.136719 -11.195312 C 3.007812 -11.195312 2.925781 -11.140625 2.898438 -11 L 0.574219 -0.238281 C 0.53125 -0.0820312 0.601562 0 0.753906 0 L 2.253906 0 C 2.378906 0 2.449219 -0.0703125 2.476562 -0.195312 L 2.855469 -2.238281 L 5.347656 -2.238281 L 5.738281 -0.195312 C 5.765625 -0.0703125 5.835938 0 5.960938 0 Z M 4.996094 -3.863281 L 3.203125 -3.863281 L 4.101562 -8.746094 Z M 4.996094 -3.863281 "/></g></g></g><g fill="#d4af37" fill-opacity="1"><g transform="translate(223.745328, 289.479855)"><g><path d="M 0.644531 -11.195312 C 0.503906 -11.195312 0.417969 -11.113281 0.417969 -10.972656 L 0.417969 -9.574219 C 0.417969 -9.433594 0.503906 -9.347656 0.644531 -9.347656 L 2.265625 -9.347656 L 2.265625 -0.222656 C 2.265625 -0.0703125 2.351562 0 2.492188 0 L 3.945312 0 C 4.101562 0 4.171875 -0.0703125 4.171875 -0.222656 L 4.171875 -9.347656 L 5.792969 -9.347656 C 5.949219 -9.347656 6.019531 -9.433594 6.019531 -9.574219 L 6.019531 -10.972656 C 6.019531 -11.113281 5.949219 -11.195312 5.792969 -11.195312 Z M 0.644531 -11.195312 "/></g></g></g><g fill="#d4af37" fill-opacity="1"><g transform="translate(231.581738, 289.479855)"><g><path d="M 6.285156 -10.972656 C 6.285156 -11.113281 6.226562 -11.195312 6.058594 -11.195312 L 0.910156 -11.195312 C 0.785156 -11.195312 0.699219 -11.113281 0.699219 -10.972656 L 0.699219 -0.222656 C 0.699219 -0.0820312 0.785156 0 0.910156 0 L 6.058594 0 C 6.226562 0 6.285156 -0.0820312 6.285156 -0.222656 L 6.285156 -1.625 C 6.285156 -1.777344 6.226562 -1.847656 6.058594 -1.847656 L 2.5625 -1.847656 L 2.5625 -4.675781 L 5.234375 -4.675781 C 5.375 -4.675781 5.457031 -4.757812 5.457031 -4.914062 L 5.457031 -6.296875 C 5.457031 -6.453125 5.375 -6.535156 5.234375 -6.535156 L 2.5625 -6.535156 L 2.5625 -9.335938 L 6.058594 -9.335938 C 6.226562 -9.335938 6.285156 -9.433594 6.285156 -9.574219 Z M 6.285156 -10.972656 "/></g></g></g><g fill="#d4af37" fill-opacity="1"><g transform="translate(239.963836, 289.479855)"><g><path d="M 6.453125 -9.179688 C 6.453125 -10.496094 5.75 -11.195312 4.4375 -11.195312 L 0.921875 -11.195312 C 0.785156 -11.195312 0.699219 -11.113281 0.699219 -10.972656 L 0.699219 -0.222656 C 0.699219 -0.0820312 0.785156 0 0.921875 0 L 2.378906 0 C 2.519531 0 2.601562 -0.0820312 2.601562 -0.222656 L 2.601562 -3.75 L 3.570312 -3.75 L 4.507812 -0.195312 C 4.535156 -0.0703125 4.605469 0 4.746094 0 L 6.199219 0 C 6.355469 0 6.4375 -0.0820312 6.394531 -0.25 L 5.429688 -3.917969 C 6.101562 -4.210938 6.453125 -4.828125 6.453125 -5.765625 Z M 2.601562 -5.597656 L 2.601562 -9.347656 L 3.988281 -9.347656 C 4.351562 -9.347656 4.546875 -9.152344 4.546875 -8.789062 L 4.546875 -6.15625 C 4.546875 -5.792969 4.351562 -5.597656 3.988281 -5.597656 Z M 2.601562 -5.597656 "/></g></g></g><g fill="#d4af37" fill-opacity="1"><g transform="translate(248.513843, 289.479855)"><g><path d="M 5.710938 -11.195312 C 5.542969 -11.195312 5.445312 -11.125 5.386719 -10.972656 L 3.820312 -6.957031 L 2.253906 -10.972656 C 2.195312 -11.125 2.097656 -11.195312 1.929688 -11.195312 L 0.53125 -11.195312 C 0.320312 -11.195312 0.222656 -11.070312 0.308594 -10.875 L 2.867188 -4.644531 L 2.867188 -0.28125 C 2.867188 -0.0976562 2.96875 0 3.148438 0 L 4.492188 0 C 4.675781 0 4.773438 -0.0976562 4.773438 -0.28125 L 4.773438 -4.644531 L 7.332031 -10.875 C 7.417969 -11.070312 7.320312 -11.195312 7.109375 -11.195312 Z M 5.710938 -11.195312 "/></g></g></g></svg>